<?xml version="1.0" encoding="UTF-8"?>
<svg id="Calque_2" data-name="Calque 2" xmlns="http://www.w3.org/2000/svg" viewBox="0 0 577.03 272.82">
  <defs>
    <style>
      .cls-1 {
        fill: none;
        stroke: #0f0edd;
        stroke-linecap: round;
        stroke-linejoin: round;
        stroke-width: 2px;
      }

      .cls-2 {
        fill: #0f0edd;
        stroke-width: 0px;
      }
    </style>
  </defs>
  <g id="Calque_2-2" data-name="Calque 2">
    <g id="Calque_11" data-name="Calque 11">
      <g>
        <g>
          <g>
            <path class="cls-2" d="M202.32,68.76l-2.9.25c.48-.06.96-.1,1.44-.14s.98-.09,1.46-.11Z"/>
            <path class="cls-2" d="M199.42,71.8c-1.41,0-2.62-1.07-2.77-2.5-.16-1.51.93-2.88,2.44-3.06.51-.06,1.03-.11,1.54-.15.51-.04,1.04-.09,1.55-.12,1.5-.08,2.83,1.07,2.93,2.59.11,1.52-1.02,2.84-2.54,2.98l-2.9.25c-.08,0-.17.01-.25.01Z"/>
          </g>
          <g>
            <path class="cls-2" d="M313.68,175.48l-224.84,19.67c-.07-21.21,5.34-41.58,14.83-59.54,19.56,33.1,55.99,53.33,97.6,49.69,41.62-3.64,77.86-30.23,97.18-66.73,9.61,16.29,15.16,35.71,15.23,56.91Z"/>
            <path class="cls-2" d="M88.84,197.94c-.69,0-1.37-.26-1.88-.73-.58-.53-.91-1.27-.91-2.05-.07-20.92,5.17-41.96,15.15-60.86.47-.89,1.39-1.46,2.4-1.49,1,0,1.95.5,2.47,1.37,19.63,33.22,56.01,51.74,94.96,48.33,39.08-3.42,75.46-28.42,94.96-65.26.47-.89,1.39-1.46,2.4-1.48,1.02-.02,1.95.5,2.47,1.37,10.15,17.2,15.55,37.37,15.62,58.32,0,1.45-1.1,2.66-2.55,2.79l-224.84,19.67c-.08,0-.16.01-.24.01ZM103.92,141.29c-7.67,16-11.88,33.41-12.27,50.81l75.08-6.57c-25.57-6.16-48-21.66-62.81-44.24ZM298.46,124.31c-14.55,25.12-36.79,44.53-62.26,55.15l74.65-6.53c-.44-17.32-4.69-33.98-12.4-48.62Z"/>
          </g>
          <g>
            <path class="cls-2" d="M88.43,78.72l110.99-9.71c-41.01,4.12-76.64,30.51-95.75,66.59-9.63-16.29-15.16-35.69-15.23-56.88Z"/>
            <path class="cls-2" d="M103.67,138.39c-.99,0-1.9-.52-2.4-1.37-10.15-17.17-15.55-37.33-15.62-58.29,0-1.45,1.1-2.66,2.55-2.79l110.99-9.71c1.54-.14,2.88.99,3.02,2.52.14,1.53-.97,2.88-2.5,3.04-38.49,3.87-74.34,28.82-93.57,65.12-.47.89-1.39,1.46-2.4,1.48-.02,0-.04,0-.07,0ZM91.26,81.28c.44,17.32,4.69,33.97,12.4,48.59,9.58-16.53,22.66-30.92,38.06-41.82,7.55-5.34,15.59-9.79,23.95-13.28l-74.41,6.51Z"/>
          </g>
          <g>
            <path class="cls-2" d="M313.28,59.05c.07,21.19-5.32,41.55-14.83,59.51-19.35-32.7-55.13-52.86-96.13-49.8l110.96-9.71Z"/>
            <path class="cls-2" d="M298.45,121.35c-.98,0-1.9-.52-2.4-1.37-19.37-32.74-55.2-51.3-93.52-48.44-1.54.12-2.87-1.03-2.99-2.56-.12-1.53,1.01-2.87,2.54-3.01l110.96-9.71c.79-.06,1.55.19,2.12.72.58.53.91,1.27.91,2.05.07,20.93-5.17,41.96-15.15,60.83-.47.89-1.39,1.46-2.4,1.48-.02,0-.04,0-.07,0ZM235.63,68.65c8.42,2.03,16.54,5.09,24.18,9.14,15.47,8.2,28.65,20.28,38.38,35.09,7.67-15.97,11.88-33.38,12.27-50.78l-74.83,6.55Z"/>
          </g>
        </g>
        <path class="cls-2" d="M262.82,121.68c.08,21.09-16.38,39.63-36.74,41.42-20.37,1.78-36.94-13.88-37.02-34.97-.01-4.32.66-8.53,1.93-12.51,2.28,2.98,5.93,4.73,10.04,4.37,6.89-.6,12.44-6.87,12.42-13.99-.02-5.41-3.26-9.77-7.83-11.28,5.79-4.45,12.73-7.35,20.19-8.01,20.37-1.78,36.94,13.88,37.01,34.97Z"/>
        <path class="cls-2" d="M199.42,71.8c-1.52,0-2.77-1.22-2.79-2.75l-.97-66.22c-.02-1.54,1.21-2.81,2.75-2.83.01,0,.03,0,.04,0,1.52,0,2.77,1.22,2.79,2.75l.97,66.22c.02,1.54-1.21,2.81-2.75,2.83-.01,0-.03,0-.04,0Z"/>
        <path class="cls-2" d="M159.51,83.42c-1.14,0-2.22-.71-2.63-1.85l-17.8-49.56c-.52-1.45.23-3.05,1.68-3.57,1.45-.52,3.05.23,3.57,1.68l17.8,49.56c.52,1.45-.23,3.05-1.68,3.57-.31.11-.63.17-.94.17Z"/>
        <path class="cls-2" d="M124.41,88.9c-.68,0-1.36-.24-1.89-.74l-33.11-30.55c-1.13-1.05-1.2-2.81-.16-3.94,1.05-1.13,2.81-1.2,3.94-.16l33.11,30.55c1.13,1.05,1.2,2.81.16,3.94-.55.6-1.3.9-2.05.9Z"/>
        <path class="cls-2" d="M238.36,75.02c-.29,0-.59-.05-.88-.14-1.46-.48-2.26-2.06-1.77-3.53l17.79-53.69c.49-1.46,2.06-2.26,3.53-1.77,1.46.48,2.26,2.06,1.77,3.53l-17.79,53.69c-.39,1.17-1.48,1.91-2.65,1.91Z"/>
        <path class="cls-2" d="M273.84,79.89c-.67,0-1.34-.24-1.87-.72-1.14-1.03-1.23-2.8-.2-3.94l32.87-36.32c1.04-1.14,2.8-1.23,3.94-.2,1.14,1.03,1.23,2.8.2,3.94l-32.87,36.32c-.55.61-1.31.92-2.07.92Z"/>
        <g>
          <path class="cls-2" d="M380.22,118.58c-7.32,17.99-22.84,30.26-39.11,30.26-13.82,0-20.36-8.93-14.8-23.79l16.99-45.42c3.54-1.04,7.5-1.85,12.19-2.26,2.96-.26,3.94.76,3.1,2.97l-7.96,20.72c6.03-4.04,11.71-6.4,17.91-6.82,12.5-.84,18.11,8.56,11.69,24.34ZM346.43,112l-5.16,13.43c-2.95,7.68-.42,11.45,4.73,11.37,6.29-.1,14.61-7.19,18.61-17.24,3.72-9.37,1.27-13.39-5.15-13.05-4.34.23-9.03,2.37-13.03,5.49Z"/>
          <path class="cls-2" d="M384.1,129.14l22.41-54.44c3.74-1.21,7.62-2.04,12.31-2.45,2.96-.26,3.86.85,2.86,3.23l-22.4,53.29c-2.17,5.17-1.14,7.21,2.2,7.16,1.91-.03,4.18-.48,6.02-1.24.38,1.56-.02,4.49-1.05,6.9-1.35,3.15-7.8,7.25-15.14,7.25-10.82,0-12.23-7.52-7.22-19.7Z"/>
          <path class="cls-2" d="M442.59,76.68c2.25-5.2,7.2-8.5,12.21-8.95,4.59-.41,7.45,2.45,5.07,7.86s-7.18,8.58-12.21,8.95c-4.52.33-7.41-2.45-5.07-7.86ZM436.7,92.12c3.61-1.17,7.53-1.94,12.13-2.25,2.8-.19,3.72,1.01,2.63,3.5l-16.56,37.63c-1.43,3.24-1.05,4.74.86,4.71l2.57-.04c-.3,1.73-.83,3.58-1.75,5.65-1.59,3.59-7,7.52-12.64,7.52-6.02,0-10.06-3.93-5.28-14.98l18.04-41.74Z"/>
          <path class="cls-2" d="M445.06,148.07c-2.35,0-2.9-1.1-1.96-3.19l24.55-54.87c3.69-1.1,7.53-1.89,12.13-2.19,2.9-.19,3.78,1.05,2.61,3.62l-1.48,3.24c5.97-5.05,13.31-8.37,19-8.75,11.39-.76,13.79,7.72,5.62,25.11l-8.71,18.55c-1.69,3.59-1.35,5.09.65,5.05l2.48-.04c-.46,1.98-1.02,3.96-2.07,6.17-1.77,3.74-7.57,8.05-13.21,8.05-6.02,0-9.8-4.22-4.31-16.08l10.19-22.01c3.38-7.3,2.55-10.7-2.97-10.41-3.16.17-7.57,1.82-11.35,4.64l-19.6,43.07h-11.58Z"/>
          <path class="cls-2" d="M505.94,148.01c-2.35,0-2.83-1.18-1.76-3.41l38.99-81.85c3.81-1.23,7.76-2.15,12.45-2.56,2.96-.26,3.79,1.04,2.46,3.79l-21.03,43.57c9.73-5.85,23.59-16.73,32.92-26.53,7.19,2.86,7.91,5.68,5.89,9.76-.61,1.24-1.58,2.61-3.17,4.26-5.12,5.31-13.1,11.79-21.75,17.52-.39,6.25-.03,13.24.49,16.63.53,3.53,1.36,4.73,3.26,4.7l2.19-.03c-.44,2.22-1.02,3.95-2.25,6.43-2.28,4.59-8.2,8.55-13.65,8.55-4.51,0-6.76-3.29-7.14-9.46-.21-4.81.11-10.92.82-16.89-2.16,1.13-4.47,2.37-6.48,3.37l-10.69,22.14h-11.58Z"/>
        </g>
        <path class="cls-2" d="M293.36,272.82c-.84,0-1.67-.1-2.53-.32-5.81-1.47-8.35-7.26-11.04-13.38l-.33-.76c-6.39-14.5-12.99-29.49-21.69-40.69-4.14-5.32-8.35-9.15-16.74-16.77-5.96-5.41-12.24-10.57-18.68-15.33-1.24-.92-1.5-2.66-.58-3.9.92-1.24,2.67-1.5,3.9-.58,6.58,4.88,13.01,10.15,19.11,15.69,8.63,7.84,12.97,11.77,17.4,17.48,9.13,11.75,15.87,27.06,22.39,41.87l.34.76c2.31,5.26,4.13,9.41,7.3,10.21,2.78.7,6.28-1.37,13.31-5.74,4.55-2.83,8.9-6.04,12.93-9.54,1.16-1.01,2.93-.89,3.94.28,1.01,1.16.89,2.93-.28,3.94-4.25,3.69-8.84,7.07-13.64,10.06-6.48,4.03-10.81,6.73-15.1,6.73Z"/>
        <path class="cls-2" d="M137.95,271.99c-1,0-1.96-.54-2.47-1.48-2.36-4.43-4.37-9.09-5.98-13.84-3.03-8.91-4.28-12.6-3.24-15.33,4.11-10.75,31.75-11.5,80.24-11.9,2.74-.02,10.89-.09,12.21-2.95,1-2.18-2.76-7.4-6.41-12.45-6.4-8.86-13.15-17.78-20.07-26.49-.96-1.21-.76-2.96.45-3.92,1.21-.96,2.96-.76,3.92.45,6.97,8.78,13.78,17.76,20.22,26.69,5.21,7.22,9.32,12.92,6.95,18.05-2.8,6.07-12.5,6.16-17.16,6.19-22.48.19-39.37.42-52.63,1.68-18.03,1.72-21.84,4.9-22.51,6.64-.23,1.12,1.41,5.95,3.31,11.54,1.52,4.47,3.41,8.85,5.62,13.02.72,1.36.21,3.05-1.15,3.77-.42.22-.87.33-1.31.33Z"/>
        <path class="cls-2" d="M15.18,217.77c-1.26,0-2.3-1.01-2.32-2.28-.03-1.28.99-2.35,2.27-2.38l123.5-2.68c1.31-.02,2.35.99,2.38,2.27.03,1.28-.99,2.35-2.27,2.38l-123.5,2.68s-.03,0-.05,0Z"/>
        <path class="cls-2" d="M35.01,201.16c-1.2,0-2.22-.93-2.32-2.14-.1-1.28.86-2.4,2.14-2.5l34.29-2.68c1.26-.1,2.4.86,2.5,2.14s-.86,2.4-2.14,2.5l-34.29,2.68c-.06,0-.12,0-.18,0Z"/>
        <path class="cls-2" d="M2.32,185.62c-1.2,0-2.22-.92-2.32-2.14-.1-1.28.85-2.4,2.13-2.5l73.41-5.89c1.28-.09,2.4.85,2.5,2.13.1,1.28-.85,2.4-2.13,2.5l-73.41,5.89c-.06,0-.13,0-.19,0Z"/>
        <g>
          <path class="cls-2" d="M404.17,182.09c0-1.24-.85-1.93-4.12-2.91-4.61-1.37-7-3.66-7-7.43,0-3.96,3.17-6.87,8.05-6.87,3.93,0,6.64,1.73,7.85,3.73.26.46.39.82.39,1.28,0,.52-.29,1.01-.95,1.34-.98.49-2.49.82-3.66.92-.59-1.83-1.83-2.81-3.47-2.81s-2.72.92-2.72,2.29,1.05,2.26,4.35,3.24c4.65,1.41,6.77,3.53,6.77,7,0,3.89-2.94,6.71-8.34,6.71-4.52,0-7.46-1.7-7.46-3.27,0-.82.39-1.83.82-2.45,1.64.82,3.89,1.28,5.92,1.28,2.45,0,3.57-.75,3.57-2.03Z"/>
          <path class="cls-2" d="M418.67,195.15h-4.02c-.82,0-1.18-.36-1.18-.98v-23.23c1.05-.26,2.26-.46,3.76-.46.95,0,1.44.43,1.44,1.18v1.44c1.18-1.8,2.94-2.78,5.07-2.78,4.12,0,7.3,3.27,7.3,8.41,0,6.18-3.99,9.85-8.25,9.85-1.73,0-3.14-.56-4.12-1.57v8.15ZM418.67,183.56c.72.65,1.64.95,2.75.95,2.55,0,4.38-2.36,4.38-5.66,0-2.88-1.21-4.48-3.44-4.48-1.51,0-2.98,1.05-3.7,3.04v6.15Z"/>
          <path class="cls-2" d="M451.94,179.44c0,5.82-4.25,9.13-9.03,9.13s-9.03-3.3-9.03-9.13,4.25-9.13,9.03-9.13,9.03,3.3,9.03,9.13ZM446.74,179.61c0-3.34-1.7-5.24-3.96-5.24-2.13,0-3.7,1.57-3.7,4.91s1.7,5.24,3.96,5.24c2.13,0,3.7-1.57,3.7-4.91Z"/>
          <path class="cls-2" d="M467.97,170.84c.62.29,1.11.72,1.11,1.31,0,1.05-1.15,2.26-2.29,2.95-.69-.52-1.6-.72-2.42-.72-1.83,0-3.11,1.24-3.57,3.37v10.44h-3.99c-.82,0-1.18-.29-1.18-.92v-16.49c1.05-.29,2.26-.46,3.76-.46.92,0,1.41.39,1.41,1.15v1.67c.88-1.51,2.58-2.81,4.65-2.81.85,0,1.73.16,2.52.52Z"/>
          <path class="cls-2" d="M473.14,182.19v-7.46h-1.87c-.69,0-1.05-.39-1.05-1.24,0-.92.13-2.19.29-2.78h2.62v-4.78c1.05-.29,2.23-.46,3.73-.46.95,0,1.44.39,1.44,1.15v4.09h4.38c.62,0,.95.36.95,1.18v2.85h-5.33v7.3c0,1.8.85,2.52,2.39,2.52.85,0,1.73-.16,2.36-.43.36.46.69,1.34.69,2,0,1.08-1.8,2.45-4.65,2.45-3.83,0-5.96-2.45-5.96-6.38Z"/>
        </g>
        <line class="cls-1" x1="370.06" y1="156.86" x2="506.74" y2="156.86"/>
      </g>
    </g>
  </g>
</svg>